Coordinates
version=1
nRows=14
nColumns=24
inDegrees=yes

Units are S.I. units (second, meters, Newtons, ...)
Angles are in degrees.

endheader
time	pelvis_tilt	pelvis_list	pelvis_rotation	pelvis_tx	pelvis_ty	pelvis_tz	hip_flexion_r	hip_adduction_r	hip_rotation_r	knee_angle_r	ankle_angle_r	subtalar_angle_r	mtp_angle_r	hip_flexion_l	hip_adduction_l	hip_rotation_l	knee_angle_l	ankle_angle_l	subtalar_angle_l	mtp_angle_l	lumbar_extension	lumbar_bending	lumbar_rotation
      6.84000000	      1.41812337	     -2.77461559	     -2.80084865	     -0.49518604	      0.93628779	      0.23587679	     20.02546189	      4.67080432	     -4.86754768	    -57.78223685	     -1.22585089	    -20.87544486	      0.00000000	      3.63917897	      1.97322525	     -1.88380828	     -8.51979934	      8.57657262	     -4.02727754	      0.00000000	    -20.92646181	      3.57419325	      0.10816488
      6.85000000	      1.32834464	     -3.03271742	     -2.79925298	     -0.48648804	      0.93687758	      0.23563696	     20.84140028	      5.07528414	     -4.81128048	    -56.07062245	     -0.68452572	    -22.03435202	      0.00000000	      2.99839765	      1.77694849	     -1.78313448	     -8.27457516	      8.93410561	     -4.19052687	      0.00000000	    -20.99582821	      3.94595868	     -0.04093476
      6.86000000	      1.25179659	     -3.26304985	     -2.79499043	     -0.47776719	      0.93734201	      0.23541552	     21.52572235	      5.43479709	     -4.77943148	    -54.07275375	     -0.43454620	    -23.39409392	      0.00000000	      2.34841693	      1.61186998	     -1.66492541	     -8.03663117	      9.28718494	     -4.38902867	      0.00000000	    -21.08299922	      4.28825320	     -0.17897566
      6.87000000	      1.19926267	     -3.46554198	     -2.76981693	     -0.46901050	      0.93769587	      0.23519270	     22.05833674	      5.73600556	     -4.80342308	    -51.78693403	     -0.44928884	    -24.91060347	      0.00000000	      1.67710392	      1.47630784	     -1.51865879	     -7.80552690	      9.63628699	     -4.59160092	      0.00000000	    -21.19698627	      4.60187802	     -0.33335108
      6.88000000	      1.17755289	     -3.63617989	     -2.72256284	     -0.46020616	      0.93793808	      0.23497172	     22.43292820	      5.96487996	     -4.91075480	    -49.22808414	     -0.61422235	    -26.43404982	      0.00000000	      0.97402595	      1.37242662	     -1.35148401	     -7.57828762	      9.98577735	     -4.77504524	      0.00000000	    -21.34171757	      4.88297888	     -0.51038769
      6.89000000	      1.15519207	     -3.77303148	     -2.67630296	     -0.45134213	      0.93801346	      0.23479364	     22.68655597	      6.13266026	     -5.09060150	    -46.41456004	     -0.86520498	    -27.81086852	      0.00000000	      0.26362080	      1.29996020	     -1.17501393	     -7.34288563	     10.33132519	     -4.96426577	      0.00000000	    -21.47182085	      5.12522392	     -0.67947115
      6.90000000	      1.21299831	     -3.84059677	     -2.60274933	     -0.44238134	      0.93800612	      0.23461843	     22.74392851	      6.17185418	     -5.42248550	    -43.38907572	     -0.90775685	    -28.69975278	      0.00000000	     -0.55302730	      1.29883509	     -0.98980900	     -7.07658541	     10.68326801	     -5.07400998	      0.00000000	    -21.67940006	      5.28291365	     -0.90889160
      6.91000000	      1.25431683	     -3.85057176	     -2.53387694	     -0.43331950	      0.93777082	      0.23450215	     22.72043915	      6.13034802	     -5.87965575	    -40.17669416	     -0.83355818	    -29.09063809	      0.00000000	     -1.36805001	      1.35191072	     -0.82118618	     -6.79283479	     11.03653373	     -5.19065288	      0.00000000	    -21.83103478	      5.37604594	     -1.09890528
      6.92000000	      1.33345819	     -3.79020138	     -2.47611492	     -0.42412883	      0.93736742	      0.23448972	     22.57003979	      6.01505703	     -6.43923807	    -36.81958503	     -0.55843506	    -28.83397064	      0.00000000	     -2.26270976	      1.47277485	     -0.65228871	     -6.45316553	     11.38885486	     -5.27427385	      0.00000000	    -21.99353041	      5.36788490	     -1.31280840
      6.93000000	      1.44788678	     -3.66195195	     -2.43618501	     -0.41478825	      0.93678872	      0.23456666	     22.32487902	      5.81881665	     -7.19093435	    -33.38482540	      0.24217370	    -27.46672510	      0.00000000	     -3.23651617	      1.66208170	     -0.51066477	     -6.05296902	     11.68423409	     -5.40381418	      0.00000000	    -22.15747549	      5.26541743	     -1.48749971
      6.94000000	      1.58082536	     -3.44982364	     -2.40122121	     -0.40532475	      0.93600895	      0.23474004	     22.02517487	      5.55373271	     -8.07864197	    -29.92239401	      1.27653343	    -25.17143544	      0.00000000	     -4.25149948	      1.93243889	     -0.37063676	     -5.62855816	     12.05013325	     -5.44592915	      0.00000000	    -22.30382010	      5.04739767	     -1.69527310
      6.95000000	      1.69342747	     -3.20168097	     -2.36195750	     -0.39571763	      0.93500473	      0.23500996	     21.71703087	      5.28912716	     -9.07606143	    -26.45408560	      2.57103078	    -21.96678369	      0.00000000	     -5.25506795	      2.22737544	     -0.25412369	     -5.20201253	     12.43453593	     -5.43123594	      0.00000000	    -22.38222795	      4.77974355	     -1.93020108
      6.96000000	      1.80629913	     -2.92865423	     -2.32400603	     -0.38599741	      0.93382969	      0.23537516	     21.38991130	      5.05493987	    -10.09222629	    -23.01489290	      3.91558675	    -18.00830817	      0.00000000	     -6.26095255	      2.53713340	     -0.16162971	     -4.78495158	     12.84720615	     -5.36309245	      0.00000000	    -22.42942986	      4.47773314	     -2.17389672
      6.97000000	      1.91465909	     -2.64922250	     -2.27746934	     -0.37619908	      0.93251273	      0.23582321	     21.04638092	      4.88785272	    -10.96185615	    -19.61306062	      5.12527783	    -13.58106070	      0.00000000	     -7.23847624	      2.84068767	     -0.07868950	     -4.42535407	     13.28675695	     -5.24766443	      0.00000000	    -22.45613613	      4.15689781	     -2.43144839
